<svg width="37" height="38" viewBox="0 0 37 38" fill="none" xmlns="http://www.w3.org/2000/svg">
<path d="M26.0359 34.8333H7.65762C6.43907 34.8333 5.27042 34.3329 4.40877 33.4421C3.54712 32.5513 3.06305 31.3431 3.06305 30.0833V14.25C3.06305 12.9902 3.54712 11.782 4.40877 10.8912C5.27042 10.0005 6.43907 9.50001 7.65762 9.50001H9.18915C9.21491 8.15835 9.6522 6.85983 10.438 5.79173C11.2237 4.72363 12.3174 3.94116 13.5611 3.55718C14.8048 3.17319 16.1344 3.20755 17.358 3.65528C18.5817 4.10302 19.6361 4.94099 20.3693 6.04834C21.0561 7.06032 21.4299 8.26384 21.4413 9.50001H26.0359C26.4421 9.50001 26.8316 9.66682 27.1189 9.96375C27.4061 10.2607 27.5674 10.6634 27.5674 11.0833V15.8333C28.8652 15.86 30.1212 16.3121 31.1544 17.1244C32.1875 17.9368 32.9444 19.0674 33.3158 20.3532C33.6872 21.639 33.654 23.0135 33.2209 24.2786C32.7878 25.5436 31.9773 26.6337 30.9062 27.3917C29.9273 28.1017 28.7632 28.4882 27.5674 28.5V33.25C27.5674 33.6699 27.4061 34.0727 27.1189 34.3696C26.8316 34.6665 26.4421 34.8333 26.0359 34.8333ZM7.65762 12.6667C7.25144 12.6667 6.86189 12.8335 6.57467 13.1304C6.28745 13.4274 6.1261 13.8301 6.1261 14.25V30.0833C6.1261 30.5033 6.28745 30.906 6.57467 31.2029C6.86189 31.4999 7.25144 31.6667 7.65762 31.6667H24.5044V26.6317C24.5031 26.3778 24.5608 26.1273 24.6728 25.9014C24.7847 25.6754 24.9476 25.4806 25.1476 25.3333C25.3471 25.1863 25.5777 25.0909 25.8202 25.0551C26.0627 25.0192 26.31 25.0441 26.5413 25.1275C26.9778 25.3116 27.4531 25.3748 27.9205 25.311C28.3878 25.2471 28.8309 25.0583 29.2062 24.7633C29.5796 24.5279 29.9 24.2125 30.1457 23.8383C30.3913 23.4641 30.5567 23.0399 30.6305 22.5942C30.6895 22.1446 30.6545 21.6871 30.5276 21.2528C30.4008 20.8185 30.1852 20.4174 29.8954 20.0767C29.5034 19.5844 28.9696 19.2345 28.3718 19.0778C27.774 18.9212 27.1434 18.966 26.5719 19.2058C26.3407 19.2893 26.0934 19.3141 25.8509 19.2783C25.6084 19.2425 25.3777 19.147 25.1783 19C24.9782 18.8528 24.8153 18.6579 24.7034 18.432C24.5914 18.206 24.5337 17.9555 24.535 17.7017V12.6667H19.6341C19.3824 12.6814 19.1311 12.6317 18.9024 12.5219C18.6738 12.4122 18.4749 12.2457 18.3234 12.0374C18.1719 11.8291 18.0724 11.5853 18.0339 11.3277C17.9954 11.0702 18.019 10.8067 18.1026 10.5608C18.2807 10.1096 18.3418 9.61816 18.2801 9.13502C18.2183 8.65188 18.0357 8.19375 17.7504 7.80584C17.5242 7.40868 17.2146 7.06922 16.8443 6.8126C16.474 6.55599 16.0527 6.38879 15.6114 6.3234C15.1702 6.25802 14.7203 6.29611 14.2952 6.43488C13.8702 6.57364 13.4807 6.80951 13.1558 7.12501C12.854 7.43441 12.6179 7.80535 12.4623 8.21423C12.3068 8.62311 12.2352 9.06099 12.2522 9.50001C12.2557 9.86318 12.3232 10.2226 12.4513 10.5608C12.5323 10.8003 12.5564 11.0563 12.5217 11.3074C12.487 11.5585 12.3944 11.7973 12.2518 12.0037C12.1092 12.2101 11.9207 12.378 11.7023 12.4934C11.4838 12.6088 11.2417 12.6682 10.9963 12.6667H7.65762Z" fill="white"/>
</svg>
